<svg xmlns="http://www.w3.org/2000/svg" viewBox="0 0 1200 630" role="img" aria-label="犬用関節サプリメント比較">
<defs>
<linearGradient id="bg" x1="0" y1="0" x2="1" y2="1">
<stop offset="0" stop-color="#e0d9ff"/>
<stop offset="1" stop-color="#ffe6c9"/>
</linearGradient>
</defs>
<rect width="1200" height="630" fill="url(#bg)"/>
<circle cx="934" cy="92" r="4" fill="#ffffff" opacity="0.65"/><circle cx="519" cy="586" r="4" fill="#ffffff" opacity="0.65"/><circle cx="1138" cy="242" r="6" fill="#ffffff" opacity="0.8"/><circle cx="965" cy="205" r="3" fill="#ffffff" opacity="0.8"/><circle cx="155" cy="438" r="6" fill="#ffffff" opacity="0.65"/><circle cx="1146" cy="598" r="3" fill="#ffffff" opacity="0.8"/><circle cx="234" cy="325" r="4" fill="#ffffff" opacity="0.65"/><circle cx="596" cy="46" r="5" fill="#ffffff" opacity="0.65"/><circle cx="934" cy="88" r="3" fill="#ffffff" opacity="0.8"/><circle cx="494" cy="268" r="5" fill="#ffffff" opacity="0.65"/><circle cx="231" cy="574" r="3" fill="#ffffff" opacity="0.8"/><circle cx="612" cy="209" r="3" fill="#ffffff" opacity="0.5"/><circle cx="624" cy="376" r="6" fill="#ffffff" opacity="0.5"/><circle cx="672" cy="101" r="4" fill="#ffffff" opacity="0.8"/><path d="M105 545 L111 561 L127 567 L111 573 L105 589 L99 573 L83 567 L99 561 Z" fill="#ffffff" opacity="0.7"/><path d="M173 520 L179 536 L195 542 L179 548 L173 564 L167 548 L151 542 L167 536 Z" fill="#ffffff" opacity="0.55"/><path d="M619 519 L623 529 L633 533 L623 537 L619 547 L615 537 L605 533 L615 529 Z" fill="#ffffff" opacity="0.7"/><path d="M1012 473 L1017 486 L1030 491 L1017 496 L1012 509 L1007 496 L994 491 L1007 486 Z" fill="#ffffff" opacity="0.55"/><path d="M332 380 L337 393 L350 398 L337 403 L332 416 L327 403 L314 398 L327 393 Z" fill="#ffffff" opacity="0.55"/><path d="M277 261 L283 277 L299 283 L283 289 L277 305 L271 289 L255 283 L271 277 Z" fill="#ffffff" opacity="0.7"/>
<text x="600" y="380" font-size="260" text-anchor="middle">🦴</text>
<text x="600" y="540" font-size="44" text-anchor="middle" font-family="sans-serif" font-weight="bold" fill="#334155" opacity="0.85">犬用関節サプリメント比較</text>
</svg>